<svg xmlns="http://www.w3.org/2000/svg" xmlns:xlink="http://www.w3.org/1999/xlink" width="1920" height="1638" viewBox="0 0 1920 1638"><defs><linearGradient id="a" x1="0.5" y1="1.562" x2="0.5" y2="0.322" gradientUnits="objectBoundingBox"><stop offset="0" stop-color="#004cff"/><stop offset="1" stop-color="#00dcff"/></linearGradient><filter id="d" x="1511.763" y="1082.369" width="416.864" height="213.124" filterUnits="userSpaceOnUse"><feOffset dy="3" input="SourceAlpha"/><feGaussianBlur stdDeviation="3" result="e"/><feFlood flood-opacity="0.161"/><feComposite operator="in" in2="e"/><feComposite in="SourceGraphic"/></filter><linearGradient id="f" x1="0.998" y1="4.672" x2="0.122" y2="12.561" gradientUnits="objectBoundingBox"><stop offset="0" stop-color="#fff"/><stop offset="0.381" stop-color="#282c37"/><stop offset="0.573" stop-color="#282c37"/><stop offset="1" stop-color="#f0f3f5"/></linearGradient><clipPath id="l"><rect width="1920" height="1638"/></clipPath></defs><g id="k" clip-path="url(#l)"><rect width="1920" height="1638" fill="#fff"/><line x2="74" transform="translate(1707.5 122.5)" fill="none" stroke="#fff" stroke-width="3"/><line x2="74" transform="translate(1707.5 103.5)" fill="none" stroke="#fff" stroke-width="2" opacity="0.7"/><path d="M0,0H647V1283H50a50,50,0,0,1-50-50Z" transform="translate(1273)" fill="#282c37"/><path d="M2604.462,1999.831l352.274-81.987,231.627-203.651-.014,122.888-.018,162.755Z" transform="translate(-1268.737 -716.434)" opacity="0.5" fill="url(#a)"/><path d="M2604.462,1958.156l266.7-81.7,232.008-162.264-.011,104.958-.015,139.009Z" transform="translate(-1183.171 -674.596)" opacity="0.5" fill="url(#a)"/><g transform="matrix(1, 0, 0, 1, 0, 0)" filter="url(#d)"><path d="M2604.462,1909.313l398.864-195.121-.009,83.945-.012,111.179Z" transform="translate(-1083.7 -625.82)" opacity="0.5" fill="url(#a)"/></g><rect width="1109" height="2" transform="matrix(0.899, -0.438, 0.438, 0.899, 922.418, 1230.267)" opacity="0.4" fill="url(#f)"/><rect width="1432" height="2" transform="matrix(0.899, -0.438, 0.438, 0.899, 632.254, 1203.862)" opacity="0.4" fill="url(#f)"/><rect width="1796" height="2" transform="matrix(0.899, -0.438, 0.438, 0.899, 305.254, 1179.429)" opacity="0.4" fill="url(#f)"/><rect width="915" height="2" transform="matrix(0.899, -0.438, 0.438, 0.899, -2.069, 1512.224)" opacity="0.4" fill="url(#f)"/><rect width="1049" height="2" transform="matrix(0.899, -0.438, 0.438, 0.899, -0.654, 1679.965)" opacity="0.4" fill="url(#f)"/></g></svg>